<?xml version="1.0" encoding="UTF-8" standalone="no"?>
<svg width="107px" height="75px" viewBox="0 0 107 75" version="1.1" xmlns="http://www.w3.org/2000/svg" xmlns:xlink="http://www.w3.org/1999/xlink" xmlns:sketch="http://www.bohemiancoding.com/sketch/ns">
    <!-- Generator: Sketch 3.5.2 (25235) - http://www.bohemiancoding.com/sketch -->
    <title>icon svg</title>
    <desc>Created with Sketch.</desc>
    <defs>
        <path id="path-1" d="M3.007,0 C1.343,0 0,1.348 0,3.01 L0,3.01 L0,71.99 C0,73.666 1.346,75 3.007,75 L3.007,75 L55.993,75 C57.656,75 59,73.652 59,71.99 L59,71.99 L59,3.01 C59,1.334 57.654,0 55.993,0 L55.993,0 L3.007,0 Z"></path>
        <path id="path-3" d="M0,4.5 C0,6.986 2.015,9 4.5,9 L4.5,9 C6.986,9 9,6.986 9,4.5 L9,4.5 C9,2.015 6.986,0 4.5,0 L4.5,0 C2.015,0 0,2.015 0,4.5"></path>
        <path id="path-5" d="M2.996,0 C1.339,0 0,1.346 0,3.007 L0,3.007 L0,55.993 C0,57.658 1.342,59 2.996,59 L2.996,59 L34.004,59 C35.661,59 37,57.653 37,55.993 L37,55.993 L37,3.007 C37,1.343 35.658,0 34.004,0 L34.004,0 L2.996,0 Z"></path>
        <path id="path-7" d="M0,4.5 C0,6.986 2.014,9 4.5,9 L4.5,9 C6.985,9 9,6.986 9,4.5 L9,4.5 C9,2.015 6.985,0 4.5,0 L4.5,0 C2.014,0 0,2.015 0,4.5"></path>
    </defs>
    <g id="Page-1" stroke="none" stroke-width="1" fill="none" fill-rule="evenodd" sketch:type="MSPage">
        <g id="Desktop" sketch:type="MSArtboardGroup" transform="translate(-457.000000, -1467.000000)">
            <g id="Perks" sketch:type="MSLayerGroup" transform="translate(177.000000, 1155.000000)">
                <g id="Perk-4" transform="translate(182.000000, 312.000000)">
                    <g id="icon-svg" transform="translate(98.000000, 0.000000)">
                        <g id="Group-3">
                            <mask id="mask-2" sketch:name="Clip 2" fill="white">
                                <use xlink:href="#path-1"></use>
                            </mask>
                            <g id="Clip-2"></g>
                            <path d="M3.0068,3 L2.9998,71.99 L55.9978,72 L55.9998,3.01 L3.0068,3 Z M55.9928,78 L3.0068,78 C-0.3052,78 -3.0002,75.304 -3.0002,71.99 L-3.0002,3.01 C-3.0002,-0.304 -0.3052,-3 3.0068,-3 L55.9928,-3 C59.3058,-3 61.9998,-0.304 61.9998,3.01 L61.9998,71.99 C61.9998,75.304 59.3058,78 55.9928,78 L55.9928,78 Z" id="Fill-1" fill="#126AD3" sketch:type="MSShapeGroup" mask="url(#mask-2)"></path>
                        </g>
                        <path d="M1,59 L56,59 L56,56 L1,56 L1,59 Z" id="Fill-4" fill="#126AD3" sketch:type="MSShapeGroup"></path>
                        <g id="Group-7" transform="translate(25.000000, 61.000000)">
                            <mask id="mask-4" sketch:name="Clip 6" fill="white">
                                <use xlink:href="#path-3"></use>
                            </mask>
                            <g id="Clip-6"></g>
                            <path d="M4.5,3 C3.673,3 3,3.673 3,4.5 C3,5.327 3.673,6 4.5,6 C5.327,6 6,5.327 6,4.5 C6,3.673 5.327,3 4.5,3 M4.5,12 C0.364,12 -3,8.636 -3,4.5 C-3,0.364 0.364,-3 4.5,-3 C8.636,-3 12,0.364 12,4.5 C12,8.636 8.636,12 4.5,12" id="Fill-5" fill="#126AD3" sketch:type="MSShapeGroup" mask="url(#mask-4)"></path>
                        </g>
                        <g id="Group-10" transform="translate(70.000000, 16.000000)">
                            <mask id="mask-6" sketch:name="Clip 9" fill="white">
                                <use xlink:href="#path-5"></use>
                            </mask>
                            <g id="Clip-9"></g>
                            <path d="M2.9961,3 L3.0001,55.993 L34.0071,56 L34.0001,3.007 L2.9961,3 Z M34.0041,62 L2.9961,62 C-0.3109,62 -2.9999,59.306 -2.9999,55.993 L-2.9999,3.007 C-2.9999,-0.306 -0.3109,-3 2.9961,-3 L34.0041,-3 C37.3101,-3 40.0001,-0.306 40.0001,3.007 L40.0001,55.993 C40.0001,59.306 37.3101,62 34.0041,62 L34.0041,62 Z" id="Fill-8" fill="#126AD3" sketch:type="MSShapeGroup" mask="url(#mask-6)"></path>
                        </g>
                        <path d="M71,59 L106,59 L106,56 L71,56 L71,59 Z" id="Fill-11" fill="#126AD3" sketch:type="MSShapeGroup"></path>
                        <g id="Group-14" transform="translate(84.000000, 61.000000)">
                            <mask id="mask-8" sketch:name="Clip 13" fill="white">
                                <use xlink:href="#path-7"></use>
                            </mask>
                            <g id="Clip-13"></g>
                            <path d="M4.5,3 C3.673,3 3,3.673 3,4.5 C3,5.327 3.673,6 4.5,6 C5.327,6 6,5.327 6,4.5 C6,3.673 5.327,3 4.5,3 M4.5,12 C0.364,12 -3,8.636 -3,4.5 C-3,0.364 0.364,-3 4.5,-3 C8.636,-3 12,0.364 12,4.5 C12,8.636 8.636,12 4.5,12" id="Fill-12" fill="#126AD3" sketch:type="MSShapeGroup" mask="url(#mask-8)"></path>
                        </g>
                    </g>
                </g>
            </g>
        </g>
    </g>
</svg>