<?xml version="1.0" encoding="UTF-8" standalone="no"?>
<svg width="75px" height="75px" viewBox="0 0 75 75" version="1.1" xmlns="http://www.w3.org/2000/svg" xmlns:xlink="http://www.w3.org/1999/xlink" xmlns:sketch="http://www.bohemiancoding.com/sketch/ns">
    <!-- Generator: Sketch 3.5.2 (25235) - http://www.bohemiancoding.com/sketch -->
    <title>icon svg</title>
    <desc>Created with Sketch.</desc>
    <defs>
        <path id="path-1" d="M2.998,0 C1.341,0 0,1.343 0,2.998 L0,2.998 L0,38.002 C0,39.659 1.343,41 2.998,41 L2.998,41 L38.002,41 C39.659,41 41,39.657 41,38.002 L41,38.002 L41,2.998 C41,1.341 39.658,0 38.002,0 L38.002,0 L2.998,0 Z"></path>
        <path id="path-3" d="M3.01,0 C1.333,0 0,1.348 0,3.01 L0,3.01 L0,71.99 C0,73.666 1.348,75 3.01,75 L3.01,75 L71.99,75 C73.666,75 75,73.652 75,71.99 L75,71.99 L75,3.01 C75,1.334 73.652,0 71.99,0 L71.99,0 L3.01,0 Z"></path>
    </defs>
    <g id="Page-1" stroke="none" stroke-width="1" fill="none" fill-rule="evenodd" sketch:type="MSPage">
        <g id="Desktop" sketch:type="MSArtboardGroup" transform="translate(-692.000000, -1156.000000)">
            <g id="Perks" sketch:type="MSLayerGroup" transform="translate(177.000000, 1155.000000)">
                <g id="Perk-2" transform="translate(391.000000, 1.000000)">
                    <g id="icon-svg" transform="translate(124.000000, 0.000000)">
                        <g id="Group-3" transform="translate(17.000000, 17.000000)">
                            <mask id="mask-2" sketch:name="Clip 2" fill="white">
                                <use xlink:href="#path-1"></use>
                            </mask>
                            <g id="Clip-2"></g>
                            <path d="M38,2.998 L2.998,3 L3,38.002 L38.006,38 L38,2.998 Z M38.002,44 L2.998,44 C-0.309,44 -3,41.31 -3,38.002 L-3,2.998 C-3,-0.31 -0.309,-3 2.998,-3 L38.002,-3 C41.31,-3 44,-0.31 44,2.998 L44,38.002 C44,41.31 41.31,44 38.002,44 L38.002,44 Z" id="Fill-1" fill="#126AD3" sketch:type="MSShapeGroup" mask="url(#mask-2)"></path>
                        </g>
                        <g id="Group-6">
                            <mask id="mask-4" sketch:name="Clip 5" fill="white">
                                <use xlink:href="#path-3"></use>
                            </mask>
                            <g id="Clip-5"></g>
                            <path d="M3.0098,3 L2.9998,71.99 L71.9898,72 C71.9988,72 72.0018,71.999 72.0018,71.999 L71.9998,3.01 L3.0098,3 Z M71.9898,78 L3.0098,78 C-0.3042,78 -3.0002,75.304 -3.0002,71.99 L-3.0002,3.01 C-3.0002,-0.304 -0.3042,-3 3.0098,-3 L71.9898,-3 C75.3038,-3 77.9998,-0.304 77.9998,3.01 L77.9998,71.99 C77.9998,75.304 75.3038,78 71.9898,78 L71.9898,78 Z" id="Fill-4" fill="#D8D8D8" sketch:type="MSShapeGroup" mask="url(#mask-4)"></path>
                        </g>
                    </g>
                </g>
            </g>
        </g>
    </g>
</svg>