<?xml version="1.0" encoding="UTF-8" standalone="no"?>
<svg width="103px" height="76px" viewBox="0 0 103 76" version="1.1" xmlns="http://www.w3.org/2000/svg" xmlns:xlink="http://www.w3.org/1999/xlink" xmlns:sketch="http://www.bohemiancoding.com/sketch/ns">
    <!-- Generator: Sketch 3.5.2 (25235) - http://www.bohemiancoding.com/sketch -->
    <title>icon svg</title>
    <desc>Created with Sketch.</desc>
    <defs></defs>
    <g id="Page-1" stroke="none" stroke-width="1" fill="none" fill-rule="evenodd" sketch:type="MSPage">
        <g id="Desktop" sketch:type="MSArtboardGroup" transform="translate(-870.000000, -1484.000000)" fill="#126AD3">
            <g id="Perks" sketch:type="MSLayerGroup" transform="translate(177.000000, 1155.000000)">
                <g id="Perk-5" transform="translate(492.000000, 320.000000)" sketch:type="MSShapeGroup">
                    <g id="icon-svg" transform="translate(201.000000, 9.000000)">
                        <path d="M22.3349,0.7577 L0.1709,24.5027 L51.4269,75.7577 L102.7389,24.4457 L79.0519,0.7577 L22.3349,0.7577 Z M4.3419,24.4307 L23.6379,3.7577 L77.8099,3.7577 L98.4979,24.4457 L51.4269,71.5157 L4.3419,24.4307 Z" id="Fill-1"></path>
                        <path d="M3.7706,22.7582 L3.7706,25.7582 L26.5906,25.7582 L49.2466,72.5242 L49.0766,72.8752 L49.5216,73.0912 L50.0506,74.1832 L50.9136,73.7662 L51.7766,74.1832 L52.3056,73.0912 L52.7506,72.8752 L52.5806,72.5242 L75.2366,25.7582 L99.7706,25.7582 L99.7706,22.7582 L3.7706,22.7582 Z M29.9236,25.7582 L71.9036,25.7582 L50.9136,69.0842 L29.9236,25.7582 Z" id="Fill-2"></path>
                        <path d="M50.2709,0.7577 L21.7709,0.7577 L25.7699,25.7577 L50.2709,3.0727 L74.7709,25.7577 L78.7699,0.7577 L50.2709,0.7577 Z M55.4269,3.7577 L75.2519,3.7577 L72.6939,19.7467 L55.4269,3.7577 Z M25.2889,3.7577 L45.1149,3.7577 L27.8469,19.7467 L25.2889,3.7577 Z" id="Fill-3"></path>
                    </g>
                </g>
            </g>
        </g>
    </g>
</svg>