<?xml version="1.0" encoding="UTF-8" standalone="no"?>
<svg width="40px" height="40px" viewBox="0 0 40 40" version="1.1" xmlns="http://www.w3.org/2000/svg" xmlns:xlink="http://www.w3.org/1999/xlink" xmlns:sketch="http://www.bohemiancoding.com/sketch/ns">
    <!-- Generator: Sketch 3.5.2 (25235) - http://www.bohemiancoding.com/sketch -->
    <title>Shape</title>
    <desc>Created with Sketch.</desc>
    <defs></defs>
    <g id="Page-1" stroke="none" stroke-width="1" fill="none" fill-rule="evenodd" sketch:type="MSPage">
        <g id="Desktop" sketch:type="MSArtboardGroup" transform="translate(-700.000000, -677.000000)" fill="#FFFFFF">
            <g id="next-page" sketch:type="MSLayerGroup" transform="translate(720.000000, 697.000000) rotate(-270.000000) translate(-720.000000, -697.000000) translate(700.000000, 677.000000)">
                <path d="M38.8284746,13.2903051 C37.0355254,8.26101695 33.3914576,4.23091525 28.5674576,1.94237288 C23.7435932,-0.346305085 18.3170169,-0.619254237 13.2877288,1.17369492 C8.25844068,2.96664407 4.22820339,6.61071186 1.93966102,11.4347119 C-0.348745763,16.2587119 -0.621694915,21.6851525 1.17111864,26.7145763 C1.3220339,27.1378983 1.78766102,27.3583729 2.21071186,27.2077288 C2.6340339,27.0568136 2.85477966,26.5914576 2.70386441,26.1681356 C1.05681356,21.5482034 1.30752542,16.5633898 3.40976271,12.1320678 C5.512,7.70074576 9.21410169,4.35322034 13.8340339,2.70630508 C18.4539661,1.05938983 23.4389153,1.31023729 27.8701017,3.41233898 C32.3015593,5.51457627 35.6489492,9.21667797 37.296,13.8366102 C38.9429153,18.4565424 38.6922034,23.4413559 36.5899661,27.872678 C34.4877288,32.304 30.7856271,35.6515254 26.1656949,37.2984407 C20.9875254,39.1442712 15.3071186,38.5856271 10.5812881,35.7656949 C10.1951186,35.535322 9.696,35.6615593 9.46576271,36.0474576 C9.23552542,36.4333559 9.36162712,36.9327458 9.74752542,37.1629831 C12.8942373,39.040678 16.4290169,39.9972881 19.9903729,39.9971525 C22.2512542,39.9971525 24.5232542,39.6113898 26.712,38.8311864 C31.7414237,37.0382373 35.7713898,33.3941695 38.0599322,28.5701695 C40.3484746,23.7460339 40.6214237,18.3195932 38.8284746,13.2903051 Z M28.9490169,20.0024407 C28.9490169,19.5532203 28.584678,19.1888814 28.1354576,19.1888814 L7.87376271,19.1888814 C7.42440678,19.1888814 7.06020339,19.5532203 7.06020339,20.0024407 C7.06020339,20.451661 7.42440678,20.816 7.87376271,20.816 L28.1354576,20.816 C28.584678,20.816 28.9490169,20.451661 28.9490169,20.0024407 Z M22.4658983,28.5118644 C22.1480678,28.8295593 22.1480678,29.344678 22.4658983,29.6623729 C22.624678,29.8211525 22.8329492,29.9006102 23.0410847,29.9006102 C23.2492203,29.9006102 23.4574915,29.8211525 23.6162712,29.6623729 L32.7010169,20.5776271 C33.0188475,20.2599322 33.0188475,19.7448136 32.7010169,19.4271186 L23.6162712,10.3423729 C23.2987119,10.024678 22.783322,10.024678 22.4658983,10.3423729 C22.1480678,10.6600678 22.1480678,11.1751864 22.4658983,11.4928814 L30.975322,20.0023051 L22.4658983,28.5118644 Z" id="Shape" sketch:type="MSShapeGroup"></path>
            </g>
        </g>
    </g>
</svg>