<?xml version="1.0" encoding="UTF-8" standalone="no"?>
<svg width="30px" height="26px" viewBox="0 0 30 26" version="1.1" xmlns="http://www.w3.org/2000/svg" xmlns:xlink="http://www.w3.org/1999/xlink" xmlns:sketch="http://www.bohemiancoding.com/sketch/ns">
    <!-- Generator: Sketch 3.5.2 (25235) - http://www.bohemiancoding.com/sketch -->
    <title>XMLID_52_</title>
    <desc>Created with Sketch.</desc>
    <defs></defs>
    <g id="Page-1" stroke="none" stroke-width="1" fill="none" fill-rule="evenodd" sketch:type="MSPage">
        <g id="Desktop" sketch:type="MSArtboardGroup" transform="translate(-1287.000000, -5899.000000)" fill="#126AD3">
            <g id="Group-16" sketch:type="MSLayerGroup" transform="translate(105.000000, 5762.000000)">
                <g id="Group-15" transform="translate(833.000000, 0.000000)" sketch:type="MSShapeGroup">
                    <g id="Group-14" transform="translate(0.000000, 137.000000)">
                        <path d="M378.784133,0.151634483 C378.692621,0.0650482759 378.574496,0.019737931 378.455101,0.019737931 C378.383125,0.019737931 378.311331,0.0361241379 378.243407,0.0703862069 L349.478125,14.550331 C349.184113,14.6986138 348.998065,15.0067241 349.00006,15.3437586 C349.002056,15.6803586 349.19125,15.9863586 349.487379,16.1313517 L357.068548,19.8383586 L372.227016,7.05277241 L358.946875,20.756731 L368.391129,25.3746621 C368.507137,25.4317034 368.63379,25.460069 368.759113,25.460069 C368.866048,25.460069 368.971956,25.4400828 369.072782,25.3994276 C369.292762,25.3101724 369.46756,25.1314138 369.554839,24.9056069 L378.905403,0.698710345 C378.979435,0.50822069 378.931169,0.29042069 378.784133,0.151634483 L378.784133,0.151634483 Z" id="XMLID_52_"></path>
                    </g>
                </g>
            </g>
        </g>
    </g>
</svg>