<?xml version="1.0" encoding="UTF-8" standalone="no"?>
<svg width="38px" height="38px" viewBox="0 0 38 38" version="1.1" xmlns="http://www.w3.org/2000/svg" xmlns:xlink="http://www.w3.org/1999/xlink" xmlns:sketch="http://www.bohemiancoding.com/sketch/ns">
    <!-- Generator: Sketch 3.5.2 (25235) - http://www.bohemiancoding.com/sketch -->
    <title>Fill 15</title>
    <desc>Created with Sketch.</desc>
    <defs></defs>
    <g id="Page-1" stroke="none" stroke-width="1" fill="none" fill-rule="evenodd" sketch:type="MSPage">
        <g id="Desktop" sketch:type="MSArtboardGroup" transform="translate(-138.000000, -5535.000000)" fill="#D9E1EB">
            <g id="social-icons" sketch:type="MSLayerGroup" transform="translate(138.000000, 5497.000000)">
                <g id="Group-9" sketch:type="MSShapeGroup">
                    <g id="fb" transform="translate(0.000000, 38.045045)">
                        <path d="M35.4932206,37.6216216 C36.6382631,37.6216216 37.5665428,36.6919844 37.5665428,35.5452674 L37.5665428,2.07635423 C37.5665428,0.929355292 36.6382631,0 35.4932206,0 L2.07346293,0 C0.927998173,0 0,0.929355292 0,2.07635423 L0,35.5452674 C0,36.6919844 0.927998173,37.6216216 2.07346293,37.6216216 L35.4932206,37.6216216 Z M25.7633816,37.6216216 L25.7633816,23.2222556 L30.6010138,23.2222556 L31.3252921,17.6104665 L25.7633816,17.6104665 L25.7633816,14.0275872 C25.7633816,12.4028433 26.2149051,11.2956713 28.5469863,11.2956713 L31.521352,11.2942781 L31.521352,6.27515409 C31.0066598,6.20688754 29.2412838,6.05405405 27.1872563,6.05405405 C22.8988987,6.05405405 19.9630198,8.66922022 19.9630198,13.471981 L19.9630198,17.6104665 L15.112977,17.6104665 L15.112977,23.2222556 L19.9630198,23.2222556 L19.9630198,37.6216216 L25.7633816,37.6216216 Z" id="Fill-15"></path>
                    </g>
                </g>
            </g>
        </g>
    </g>
</svg>