<?xml version="1.0" encoding="UTF-8" standalone="no"?>
<svg width="47px" height="38px" viewBox="0 0 47 38" version="1.1" xmlns="http://www.w3.org/2000/svg" xmlns:xlink="http://www.w3.org/1999/xlink" xmlns:sketch="http://www.bohemiancoding.com/sketch/ns">
    <!-- Generator: Sketch 3.5.2 (25235) - http://www.bohemiancoding.com/sketch -->
    <title>Fill 1</title>
    <desc>Created with Sketch.</desc>
    <defs></defs>
    <g id="Page-1" stroke="none" stroke-width="1" fill="none" fill-rule="evenodd" sketch:type="MSPage">
        <g id="Desktop" sketch:type="MSArtboardGroup" transform="translate(-356.000000, -5535.000000)" fill="#D9E1EB">
            <g id="social-icons" sketch:type="MSLayerGroup" transform="translate(138.000000, 5497.000000)">
                <g id="Group-9" sketch:type="MSShapeGroup">
                    <path d="M264.481206,42.4986195 C262.791841,43.2540051 260.976348,43.764538 259.070837,43.9941509 C261.015815,42.8186551 262.509356,40.9573688 263.212713,38.7396408 C261.392685,39.8279311 259.376666,40.6183682 257.230992,41.0444049 C255.512572,39.1985278 253.064428,38.045045 250.355129,38.045045 C245.152676,38.045045 240.934889,42.2974543 240.934889,47.5424818 C240.934889,48.2868609 241.018358,49.0117669 241.178914,49.7068706 C233.349959,49.3108054 226.408933,45.5296443 221.762885,39.7835664 C220.952043,41.1863043 220.487505,42.8178084 220.487505,44.5583617 C220.487505,47.8533736 222.150671,50.7604481 224.678253,52.4635792 C223.133993,52.4143039 221.681599,51.9870818 220.411426,51.2757223 C220.410754,51.3153457 220.410754,51.3551385 220.410754,51.3951006 C220.410754,55.9968397 223.657815,59.8355734 227.967133,60.7079666 C227.176613,60.925049 226.344442,61.0410407 225.485232,61.0410407 C224.878276,61.0410407 224.288115,60.9816055 223.71307,60.8706937 C224.911698,64.6440656 228.390524,67.389937 232.512582,67.4666439 C229.288697,70.0138901 225.226932,71.5322811 220.813656,71.5322811 C220.053366,71.5322811 219.303488,71.4874084 218.566543,71.3996949 C222.73529,74.0944284 227.686832,75.6666667 233.00651,75.6666667 C250.333128,75.6666667 259.80795,61.1944546 259.80795,48.6438106 C259.80795,48.2319977 259.798881,47.822386 259.780743,47.4151449 C261.621092,46.0760754 263.218255,44.4032545 264.481206,42.4986195" id="Fill-1"></path>
                </g>
            </g>
        </g>
    </g>
</svg>