<?xml version="1.0" encoding="UTF-8" standalone="no"?>
<svg width="34px" height="38px" viewBox="0 0 34 38" version="1.1" xmlns="http://www.w3.org/2000/svg" xmlns:xlink="http://www.w3.org/1999/xlink" xmlns:sketch="http://www.bohemiancoding.com/sketch/ns">
    <!-- Generator: Sketch 3.5.2 (25235) - http://www.bohemiancoding.com/sketch -->
    <title>Shape</title>
    <desc>Created with Sketch.</desc>
    <defs></defs>
    <g id="Page-1" stroke="none" stroke-width="1" fill="none" fill-rule="evenodd" sketch:type="MSPage">
        <g id="Desktop" sketch:type="MSArtboardGroup" transform="translate(-1021.000000, -5534.000000)" fill="#D9E1EB">
            <g id="social-icons" sketch:type="MSLayerGroup" transform="translate(138.000000, 5497.000000)">
                <g id="Group-9" sketch:type="MSShapeGroup">
                    <path d="M899.407774,74.5901355 C897.920715,74.3547383 896.668498,73.2560497 894.946679,71.5296354 C889.781308,66.6640867 884.459345,53.6370077 883.754984,42.6503745 L890.016067,42.6503745 C891.659548,54.186352 894.242318,62.0340194 899.799039,68.3905853 C902.538231,65.8008796 904.807821,62.1909509 906.373134,59.2872979 C903.32093,57.8747464 901.599111,55.2064906 900.659991,52.7737162 C897.764209,45.239996 900.268642,37.2353971 908.486386,37 C914.512625,37 916.54754,41.5516015 916.625709,45.867806 C916.547456,48.4575118 916.156107,50.2624761 915.373493,52.4598534 C913.651674,52.8521819 911.851686,52.3813877 910.755976,51.5966462 C909.895108,50.9688362 909.582012,51.282699 910.129868,49.5562004 C910.755976,47.3589075 910.990735,42.5718245 908.016784,42.4933588 C905.981869,42.6502902 905.434098,45.1615303 905.434098,46.8880289 C905.981953,53.9508705 910.521217,57.0899206 916.54754,55.5204378 L916.54754,60.0720393 C914.590962,60.5429179 914.512625,60.5429179 912.086445,60.6213836 C910.677723,63.9173651 903.007834,75.2964956 899.329521,74.5901355 L899.407774,74.5901355 L899.407774,74.5901355 Z" id="Shape"></path>
                </g>
            </g>
        </g>
    </g>
</svg>