<?xml version="1.0" encoding="UTF-8" standalone="no"?>
<svg width="22px" height="38px" viewBox="0 0 22 38" version="1.1" xmlns="http://www.w3.org/2000/svg" xmlns:xlink="http://www.w3.org/1999/xlink" xmlns:sketch="http://www.bohemiancoding.com/sketch/ns">
    <!-- Generator: Sketch 3.5.2 (25235) - http://www.bohemiancoding.com/sketch -->
    <title>Shape</title>
    <desc>Created with Sketch.</desc>
    <defs></defs>
    <g id="Page-1" stroke="none" stroke-width="1" fill="none" fill-rule="evenodd" sketch:type="MSPage">
        <g id="Desktop" sketch:type="MSArtboardGroup" transform="translate(-1239.000000, -5534.000000)" fill="#D9E1EB">
            <g id="social-icons" sketch:type="MSLayerGroup" transform="translate(138.000000, 5497.000000)">
                <g id="Group-9" sketch:type="MSShapeGroup">
                    <path d="M1120.60199,67.0506667 C1119.90987,67.3843117 1118.58649,67.6746017 1117.59926,67.6995779 C1114.61938,67.7801616 1114.04103,65.5839013 1114.01702,63.9917833 L1114.01702,52.280044 L1121.49154,52.280044 L1121.49154,46.5835746 L1114.04289,46.5835746 L1114.04289,37 L1108.59202,37 C1108.50227,37 1108.34562,37.0794056 1108.32347,37.280865 C1108.00457,40.2139246 1106.64716,45.3618591 1101,47.4202789 L1101,52.2798083 L1104.7671,52.2798083 L1104.7671,64.5716564 C1104.7671,68.7806253 1107.8386,74.7600803 1115.94696,74.6191765 C1118.68277,74.5718159 1121.72116,73.414426 1122.39206,72.4151405 L1120.60199,67.0506667" id="Shape"></path>
                </g>
            </g>
        </g>
    </g>
</svg>