<?xml version="1.0" encoding="UTF-8" standalone="no"?>
<svg width="39px" height="39px" viewBox="0 0 39 39" version="1.1" xmlns="http://www.w3.org/2000/svg" xmlns:xlink="http://www.w3.org/1999/xlink" xmlns:sketch="http://www.bohemiancoding.com/sketch/ns">
    <!-- Generator: Sketch 3.5.2 (25235) - http://www.bohemiancoding.com/sketch -->
    <title>Shape</title>
    <desc>Created with Sketch.</desc>
    <defs></defs>
    <g id="Page-1" stroke="none" stroke-width="1" fill="none" fill-rule="evenodd" sketch:type="MSPage">
        <g id="Desktop" sketch:type="MSArtboardGroup" transform="translate(-583.000000, -5535.000000)" fill="#D9E0EB">
            <g id="social-icons" sketch:type="MSLayerGroup" transform="translate(138.000000, 5497.000000)">
                <g id="Group-9" sketch:type="MSShapeGroup">
                    <path d="M479.900377,38.498613 L449.305558,38.498613 C447.202165,38.498613 445.481206,40.2182024 445.481206,42.3199229 L445.481206,72.8904018 C445.481206,74.9921223 447.202165,76.7117117 449.305558,76.7117117 L479.900377,76.7117117 C482.003771,76.7117117 483.724729,74.9921223 483.724729,72.8904018 L483.724729,42.3199229 C483.724729,40.2182024 482.003771,38.498613 479.900377,38.498613 L479.900377,38.498613 Z M464.602968,49.9625426 C468.809755,49.9625426 472.251672,53.4017215 472.251672,57.6051623 C472.251672,61.8086032 468.809755,65.2477821 464.602968,65.2477821 C460.39618,65.2477821 456.954263,61.8086032 456.954263,57.6051623 C456.954263,53.4017215 460.39618,49.9625426 464.602968,49.9625426 L464.602968,49.9625426 Z M450.261647,72.8904018 C449.687994,72.8904018 449.305558,72.5082709 449.305558,71.9350744 L449.305558,55.6945074 L453.321128,55.6945074 C453.129911,56.2677039 453.129911,57.0319659 453.129911,57.6051623 C453.129911,63.9103236 458.292786,69.069092 464.602968,69.069092 C470.913149,69.069092 476.076025,63.9103236 476.076025,57.6051623 C476.076025,57.0319659 476.076025,56.2677039 475.884807,55.6945074 L479.900377,55.6945074 L479.900377,71.9350744 C479.900377,72.5082709 479.517942,72.8904018 478.944289,72.8904018 L450.261647,72.8904018 L450.261647,72.8904018 Z M479.900377,47.0965602 C479.900377,47.6697567 479.517942,48.0518877 478.944289,48.0518877 L475.119937,48.0518877 C474.546284,48.0518877 474.163849,47.6697567 474.163849,47.0965602 L474.163849,43.2752503 C474.163849,42.7020538 474.546284,42.3199229 475.119937,42.3199229 L478.944289,42.3199229 C479.517942,42.3199229 479.900377,42.7020538 479.900377,43.2752503 L479.900377,47.0965602 L479.900377,47.0965602 Z" id="Shape"></path>
                </g>
            </g>
        </g>
    </g>
</svg>