<?xml version="1.0" encoding="UTF-8" standalone="no"?>
<svg width="39px" height="38px" viewBox="0 0 39 38" version="1.1" xmlns="http://www.w3.org/2000/svg" xmlns:xlink="http://www.w3.org/1999/xlink" xmlns:sketch="http://www.bohemiancoding.com/sketch/ns">
    <!-- Generator: Sketch 3.5.2 (25235) - http://www.bohemiancoding.com/sketch -->
    <title>Shape</title>
    <desc>Created with Sketch.</desc>
    <defs></defs>
    <g id="Page-1" stroke="none" stroke-width="1" fill="none" fill-rule="evenodd" sketch:type="MSPage">
        <g id="Desktop" sketch:type="MSArtboardGroup" transform="translate(-802.000000, -5535.000000)" fill="#D9E1EB">
            <g id="social-icons" sketch:type="MSLayerGroup" transform="translate(138.000000, 5497.000000)">
                <g id="Group-9" sketch:type="MSShapeGroup">
                    <g id="snapchat" transform="translate(664.724729, 38.045045)">
                        <path d="M0,28.0525949 L0,28.0542763 C0.0225006226,28.8894173 0.0294407497,29.7293833 0.170215749,30.559407 C0.319391955,31.4375332 0.532636492,32.2938013 0.939474048,33.090782 C1.48949739,34.1695059 2.24487543,35.0804558 3.19837584,35.8245823 C3.88296459,36.3589 4.63081808,36.7830499 5.45866566,37.0506109 C6.66580945,37.4402556 7.91116047,37.5896073 9.17470193,37.5969177 C9.96302731,37.6018887 10.7508413,37.6216268 11.5394589,37.6183372 C17.2665249,37.5942128 22.9937369,37.6597141 28.720949,37.5829548 C29.4809294,37.5726471 30.2284907,37.479878 30.9743717,37.3433927 C32.4039648,37.0815339 33.6674332,36.4711148 34.7484128,35.5060678 C36.0082285,34.3816539 36.8582115,33.0055427 37.2418909,31.344691 C37.4929774,30.2590954 37.5558038,29.1577093 37.5665428,28.0524487 L37.5665428,27.8319668 C37.5665428,27.746435 37.5340337,9.05211296 37.5310385,8.80502116 C37.5226373,8.12624976 37.4726684,7.45259564 37.3454815,6.78471675 C37.1908262,5.970849 36.9723218,5.17781592 36.5828711,4.44151161 C36.1716503,3.66361107 35.6565467,2.96415121 35.0194431,2.35292798 C34.0435151,1.41646469 32.9173151,0.754214814 31.6062155,0.403900053 C30.4220107,0.0875786903 29.2139172,0.0175449797 27.9969841,0.0186415409 C27.9950117,0.0183491246 27.9904093,0.00599453473 27.9901171,0 L9.57058139,0 C9.57021612,0.00628695106 9.56999696,0.0125739021 9.56955863,0.0186415409 C8.87890641,0.0312885471 8.18723142,0.0260981573 7.50008578,0.111337517 C6.74733768,0.204983846 6.00182192,0.34600162 5.28932656,0.609322524 C4.16707148,1.02469992 3.19202015,1.67167104 2.35913184,2.53539577 C1.41549371,3.51396702 0.750337321,4.64569131 0.397413594,5.9635386 C0.0825509856,7.13934465 0.0140263622,8.33854401 0.0123461209,9.54622345 L0,28.0525949 Z M19.5096277,30.9825119 C19.4313404,30.9825119 19.356645,30.9797063 19.2998354,30.9770446 C19.2547542,30.9808573 19.208207,30.9825119 19.1615865,30.9825119 C17.5168943,30.9825119 16.4172075,30.2194575 15.4467533,29.545679 C14.7511842,29.0634734 14.0951985,28.6082449 13.3266933,28.4827837 C12.9492578,28.421348 12.5738014,28.3901986 12.2110265,28.3901986 C11.5573865,28.3901986 11.0408225,28.4896899 10.6636802,28.5620603 C10.4316039,28.6064465 10.2314876,28.644646 10.076819,28.644646 C9.91482004,28.644646 9.71800235,28.609396 9.63597665,28.334518 C9.57095717,28.1176945 9.52433667,27.9076333 9.47932882,27.7053415 C9.36673591,27.1998278 9.28507672,26.8912825 9.09221737,26.8620034 C7.02940667,26.5496453 5.81060303,26.0895249 5.56782455,25.5322873 C5.54238852,25.4737291 5.5281678,25.4148113 5.52501579,25.3565409 C5.51555974,25.1904343 5.63504311,25.0447583 5.80188001,25.0176373 C7.44004828,24.7529027 8.89664583,23.903162 10.1314295,22.4912199 C11.0879561,21.3981104 11.5576797,20.3537034 11.6081119,20.2383855 C11.610311,20.233206 11.6128766,20.2277386 11.6155155,20.2227748 C11.8535293,19.7488423 11.9008828,19.3392949 11.7566965,19.0058587 C11.490901,18.3907103 10.6106091,18.1166236 10.0282193,17.935266 C9.88337319,17.8903043 9.74637048,17.8477165 9.6372228,17.8052007 C9.12095202,17.6050671 8.27188709,17.182211 8.38499312,16.5985718 C8.46738534,16.1729821 9.0409788,15.8765944 9.50454495,15.8765944 C9.63326445,15.8765944 9.74732342,15.8987515 9.84334993,15.9429939 C10.3671709,16.1838449 10.8384338,16.3059249 11.2437243,16.3059249 C11.7477535,16.3059249 11.9911917,16.1175892 12.0500538,16.0640668 C12.0355399,15.8001954 12.0178006,15.5212169 12.0006478,15.2573455 C12.0006478,15.2570578 12.0002813,15.2538924 12.0002813,15.2538924 C11.8819707,13.4068647 11.7344125,11.1082773 12.3335152,9.7901433 C14.1266454,5.8445179 17.9293685,5.53769907 19.0517791,5.53769907 C19.0816866,5.53769907 19.5410012,5.53323886 19.5410012,5.53323886 C19.5617459,5.53287917 19.5842498,5.53259141 19.60756,5.53259141 C20.7330494,5.53259141 24.5436892,5.83976994 26.3379188,9.78776932 C26.9370216,11.1067666 26.7893167,13.4072963 26.6706397,15.2562664 L26.6650687,15.3447511 C26.6487955,15.5958174 26.6337685,15.8334311 26.6210871,16.0637791 C26.6765039,16.1138484 26.8992708,16.2865015 27.3525012,16.3039826 C27.7388796,16.289451 28.182874,16.1679464 28.6718028,15.9432816 C28.822953,15.8736449 28.990303,15.8591852 29.1039221,15.8591852 C29.2756703,15.8591852 29.4504239,15.8919893 29.5960763,15.9516265 L29.6038464,15.954576 C30.0187396,16.099101 30.2904726,16.3879351 30.2963368,16.6913728 C30.3015413,16.9742361 30.0873509,17.3970202 29.0338448,17.8053446 C28.9259432,17.8472849 28.7882808,17.8901604 28.6428483,17.9354099 C28.0599454,18.1169833 27.1803865,18.3909261 26.914591,19.0057148 C26.7701847,19.339151 26.8176849,19.7485545 27.055772,20.2223432 C27.0584109,20.2275228 27.0606833,20.2327743 27.0632488,20.2382417 C27.1365515,20.4068661 28.9108429,24.3772385 32.8694808,25.0172777 C33.0362444,25.0445424 33.1559476,25.1903623 33.1464183,25.3561812 C33.1428998,25.4157465 33.1282392,25.4753118 33.1025833,25.5335102 C32.8614908,26.0876545 31.6427604,26.5471274 29.5793633,26.8599172 C29.3856976,26.8892682 29.3041118,27.1964467 29.1925451,27.6992987 C29.1463644,27.9069859 29.0993774,28.1105726 29.0352375,28.3245185 C28.9752026,28.5257312 28.8416452,28.6240715 28.6271615,28.6240715 L28.594835,28.6240715 C28.4551934,28.6240715 28.2573495,28.5991807 28.0078272,28.5512694 C27.5716762,28.4679644 27.0825275,28.3904144 26.4604809,28.3904144 C26.0977793,28.3904144 25.7223962,28.4216358 25.3445209,28.4829996 C24.576822,28.6084608 23.9209096,29.0629699 23.2265866,29.5446718 C22.2542266,30.2193855 21.1541733,30.9825119 19.5096277,30.9825119 Z" id="Shape"></path>
                    </g>
                </g>
            </g>
        </g>
    </g>
</svg>